<?xml version="1.0" encoding="UTF-8"?>
<svg id="_레이어_2" data-name="레이어 2" xmlns="http://www.w3.org/2000/svg" viewBox="0 0 400 157.79">
  <defs>
    <style>
      .cls-1 {
        fill: #333;
      }
    </style>
  </defs>
  <g id="_레이어_1-2" data-name="레이어 1">
    <g>
      <path class="cls-1" d="m135.57,0l-44.31,69.68v87.01h-46.6v-87.01L0,0h47.29l20.2,32.26L89.19,0h46.37Z"/>
      <path class="cls-1" d="m226.94,60.95v34.9h-30.42c-4.13,0-7.06.61-8.78,1.84-1.72,1.23-2.58,3.29-2.58,6.2,0,3.29.88,5.45,2.64,6.49,1.76,1.03,5.36,1.55,10.79,1.55h31.34v44.77h-36.62c-17.22,0-30.38-4.11-39.49-12.34-9.11-8.23-13.66-20.11-13.66-35.64v-61.41c0-15,4.3-26.63,12.91-34.9,8.61-8.26,20.72-12.4,36.33-12.4h40.52v45h-29.73c-8.04,0-12.05,2.6-12.05,7.81,0,3.06.96,5.19,2.87,6.37,1.91,1.19,5.32,1.78,10.22,1.78h25.71Z"/>
      <path class="cls-1" d="m321.95,0v103.76c0,15.64-4.52,28.55-13.54,38.74-9.03,10.19-20.47,15.28-34.32,15.28-4.06,0-8.8-.86-14.23-2.59v-44.32c2.3.98,4.4,1.47,6.31,1.47,6.12,0,9.18-4.85,9.18-14.55V0h46.6Z"/>
      <path class="cls-1" d="m400,0v156.69h-46.6V0h46.6Z"/>
    </g>
  </g>
</svg>