<svg xmlns="http://www.w3.org/2000/svg" width="480" height="120" viewBox="0 0 480 120">
    <path data-name="패스 1" d="M862.359 127.385a91.177 91.177 0 0 1-4.989 1.657 17.077 17.077 0 0 1-4.857.63 11.9 11.9 0 0 1-7.526-2.194 10.114 10.114 0 0 1-3.593-6.42h-.363a29.332 29.332 0 0 1-8.432 6.627 23.62 23.62 0 0 1-10.841 2.291 15.385 15.385 0 0 1-11.031-4.1 14.1 14.1 0 0 1-4.318-10.72 18.094 18.094 0 0 1 .968-6.147 15.325 15.325 0 0 1 6.885-8.1 35.337 35.337 0 0 1 4.654-2.26q2.717-1.018 11.021-3.794a82.507 82.507 0 0 0 11.213-4.336v-5.967a24.637 24.637 0 0 0-.336-3.009 12.444 12.444 0 0 0-1.414-4.217 12.06 12.06 0 0 0-3.416-3.886 10.264 10.264 0 0 0-6.253-1.657 14.106 14.106 0 0 0-5.167.934 9.338 9.338 0 0 0-3.35 1.956 16.559 16.559 0 0 0 .57 3.556 18.041 18.041 0 0 1 .579 4.336 5.174 5.174 0 0 1-1.91 3.855 7.507 7.507 0 0 1-5.281 1.749 4.955 4.955 0 0 1-4.446-2.141 8.432 8.432 0 0 1 .543-10.09 19.693 19.693 0 0 1 5.109-4.516 27.828 27.828 0 0 1 6.586-2.864 25.98 25.98 0 0 1 7.552-1.172 49.857 49.857 0 0 1 8.848.692 16.38 16.38 0 0 1 6.863 2.983 13.868 13.868 0 0 1 4.676 6.054 25.623 25.623 0 0 1 1.609 9.848q0 8.619-.181 15.272t-.181 14.549a7.335 7.335 0 0 0 .809 3.732 6.6 6.6 0 0 0 2.514 2.353 6.1 6.1 0 0 0 2.864.6c1.313.044 2.652.062 4.022.062zm-21.085-31.809q-5.145 1.514-9 2.961a36.127 36.127 0 0 0-7.191 3.622 16.218 16.218 0 0 0-4.773 4.86 12.288 12.288 0 0 0-1.755 6.671q0 5.01 2.625 7.363a9.617 9.617 0 0 0 6.682 2.357 13.755 13.755 0 0 0 7.553-2.084 22.143 22.143 0 0 0 5.5-4.917z" transform="translate(-806.409 -35.215)" style="fill:#000f18"/>
    <path data-name="패스 2" d="M857.195 153.338h-29.062v-3.974c.923-.079 1.918-.167 2.961-.273a14.309 14.309 0 0 0 2.6-.449 4.459 4.459 0 0 0 2.537-1.9 6.6 6.6 0 0 0 .844-3.529V74.369a9.11 9.11 0 0 0-.932-4.071 7.883 7.883 0 0 0-2.448-2.979 12.444 12.444 0 0 0-3.991-1.331 36.365 36.365 0 0 0-4.649-.723V61.41l22.416-1.326.844.9v81.507a6.813 6.813 0 0 0 .787 3.463 5.055 5.055 0 0 0 2.537 2.08 13.712 13.712 0 0 0 2.634.9 18.834 18.834 0 0 0 2.926.423z" transform="translate(-742.66 -60.084)" style="fill:#000f18"/>
    <path data-name="패스 3" d="M931.986 71.624a12.575 12.575 0 0 0-5.462 2.106 10.575 10.575 0 0 0-4.265 5.6q-3.016 8.85-5.706 16.775t-6.014 17.8q-1.094 3.139-2.206 6.746t-2.029 6.931h-5.153L885.082 83.8l-16.1 43.785h-4.972q-4.528-13.377-8.848-26.539t-7.646-22.921a8.169 8.169 0 0 0-3.686-4.459 13.4 13.4 0 0 0-5.259-1.926v-3.972h26.579v4.217a19.772 19.772 0 0 0-4.327.661c-1.542.405-2.32 1.066-2.32 1.987a5.39 5.39 0 0 0 .208 1.027c.145.524.309 1.084.517 1.683q1.928 6.312 4.375 14.1t6.311 20.229l15.2-42.705h5.851l15.525 42.111q2.592-8.057 5.171-15.6t4.508-14.157c.274-1.049.552-2 .813-2.864a8.653 8.653 0 0 0 .393-2.56 2.53 2.53 0 0 0-.963-1.926 8.122 8.122 0 0 0-2.36-1.388 13.332 13.332 0 0 0-2.63-.723 14.03 14.03 0 0 0-2.082-.238v-3.854h22.65z" transform="translate(-696.445 -33.91)" style="fill:#000f18"/>
    <path data-name="패스 4" d="M921.926 127.385a92.003 92.003 0 0 1-4.981 1.657 17.212 17.212 0 0 1-4.87.63 11.882 11.882 0 0 1-7.517-2.194 10.159 10.159 0 0 1-3.6-6.42h-.358a29.325 29.325 0 0 1-8.428 6.627 23.669 23.669 0 0 1-10.85 2.291 15.351 15.351 0 0 1-11.022-4.1 14.083 14.083 0 0 1-4.323-10.72 18.432 18.432 0 0 1 .964-6.147 14.82 14.82 0 0 1 2.9-4.878 14.565 14.565 0 0 1 3.987-3.225 35.614 35.614 0 0 1 4.654-2.26q2.718-1.018 11.031-3.794a82.978 82.978 0 0 0 11.2-4.336v-5.964a26.892 26.892 0 0 0-.327-3.009 12.678 12.678 0 0 0-1.427-4.217 11.99 11.99 0 0 0-3.407-3.886 10.291 10.291 0 0 0-6.258-1.657 14.063 14.063 0 0 0-5.162.934 9.468 9.468 0 0 0-3.359 1.956 16.121 16.121 0 0 0 .579 3.556 18.476 18.476 0 0 1 .57 4.336 5.165 5.165 0 0 1-1.9 3.855 7.51 7.51 0 0 1-5.291 1.749 4.94 4.94 0 0 1-4.437-2.141 8.43 8.43 0 0 1-1.423-4.79 8.516 8.516 0 0 1 1.966-5.3 19.732 19.732 0 0 1 5.1-4.516 28.119 28.119 0 0 1 6.589-2.864 26.053 26.053 0 0 1 7.553-1.172 50.1 50.1 0 0 1 8.856.692 16.378 16.378 0 0 1 6.851 2.983 13.959 13.959 0 0 1 4.689 6.054 25.909 25.909 0 0 1 1.6 9.848q0 8.619-.181 15.272t-.181 14.549a7.327 7.327 0 0 0 .822 3.732 6.627 6.627 0 0 0 2.5 2.353 6.144 6.144 0 0 0 2.877.6c1.3.044 2.647.062 4.012.062zm-21.09-31.809q-5.124 1.514-9 2.961a36.626 36.626 0 0 0-7.19 3.622 16.484 16.484 0 0 0-4.773 4.86 12.36 12.36 0 0 0-1.75 6.671q0 5.01 2.629 7.363a9.626 9.626 0 0 0 6.674 2.357 13.716 13.716 0 0 0 7.553-2.084 21.978 21.978 0 0 0 5.5-4.917z" transform="translate(-602.724 -35.215)" style="fill:#000f18"/>
    <path data-name="패스 5" d="M885.3 146.561a7.187 7.187 0 0 1 1.657-4.909 5.273 5.273 0 0 1 4.141-1.9 7.167 7.167 0 0 1 3.324.723 9.411 9.411 0 0 1 2.479 1.851 15.868 15.868 0 0 1 1.922 2.45 50.966 50.966 0 0 1 1.631 2.569c2.02-1.08 4.42-3.908 7.226-8.473a68.67 68.67 0 0 0 6.068-12.02q-5.735-14.27-10.391-25.534t-9.723-23.309a8.647 8.647 0 0 0-3.867-4.309 16.09 16.09 0 0 0-5.436-1.956v-3.976h27.2v4.217a19.561 19.561 0 0 0-4.349.749q-2.539.694-2.537 1.6a4.512 4.512 0 0 0 .265 1.2c.182.56.4 1.141.641 1.745q2.287 5.955 6.992 17.184t7.283 17.969l5.66-13.332q2.929-6.9 6.563-16.281c.283-.762.689-1.82 1.207-3.159a9.8 9.8 0 0 0 .787-3.463q0-1.566-2.744-2.917a16.383 16.383 0 0 0-5.233-1.657v-3.855H948.2V71.5a14.876 14.876 0 0 0-4.773 2.08 10.86 10.86 0 0 0-4.411 5.032q-7.2 16.623-12.785 30.3t-8.481 20.123a110.95 110.95 0 0 1-6.806 13.161 39.486 39.486 0 0 1-5.825 7.442 17.113 17.113 0 0 1-5.047 3.4 12.942 12.942 0 0 1-4.68.872 11.307 11.307 0 0 1-7.407-2.225 6.554 6.554 0 0 1-2.685-5.124z" transform="translate(-539.953 -33.91)" style="fill:#000f18"/>
    <path data-name="패스 6" d="M944.242 99.422a15.3 15.3 0 0 1 3.809 5 16.35 16.35 0 0 1 1.326 6.931 16.843 16.843 0 0 1-6.2 13.492q-6.185 5.241-16.038 5.243a24.234 24.234 0 0 1-9.582-1.868 26 26 0 0 1-6.249-3.437l-1.207 3.917h-4.534l-.6-20.661h4.168a22.708 22.708 0 0 0 2.055 5.5 26.17 26.17 0 0 0 3.8 5.68 21.028 21.028 0 0 0 5.648 4.472 15.061 15.061 0 0 0 7.4 1.815q5.8 0 8.945-2.635a9.335 9.335 0 0 0 3.142-7.548 8.992 8.992 0 0 0-1-4.367 9.643 9.643 0 0 0-2.926-3.225 23.36 23.36 0 0 0-4.892-2.5q-2.9-1.11-6.466-2.2a59.678 59.678 0 0 1-6.32-2.318 25.131 25.131 0 0 1-5.949-3.468 16.843 16.843 0 0 1-4.349-5.177 14.726 14.726 0 0 1-1.692-7.231 16.228 16.228 0 0 1 5.44-12.351q5.436-5.056 14.562-5.058a29.711 29.711 0 0 1 7.155.9 24.971 24.971 0 0 1 5.962 2.172l1.393-3.133h4.349l.906 19.1h-4.168a19.189 19.189 0 0 0-5.472-10.434 14.268 14.268 0 0 0-10.24-4.023q-4.958 0-7.8 2.485a7.706 7.706 0 0 0-2.837 6.01 9.765 9.765 0 0 0 .932 4.516 8.308 8.308 0 0 0 2.815 3.071 23.119 23.119 0 0 0 4.556 2.26q2.758 1.058 6.8 2.379a58.479 58.479 0 0 1 7.518 2.952 24.881 24.881 0 0 1 5.84 3.739z" transform="translate(-469.378 -35.263)" style="fill:#000f18"/>
</svg>
