<?xml version="1.0" encoding="UTF-8"?>
<svg id="_레이어_2" data-name="레이어 2" xmlns="http://www.w3.org/2000/svg" viewBox="0 0 512 262.3">
  <defs>
    <style>
      .cls-1 {
        fill: #fff;
      }
    </style>
  </defs>
  <g id="Outline">
    <path class="cls-1" d="m10.63,251.49c14.22,14.34,37.37,14.43,51.71.21.07-.07.14-.14.21-.21L230.04,84.01c14.22-14.34,37.37-14.43,51.71-.21.07.07.14.14.21.21l167.48,167.48c14.22,14.34,37.37,14.43,51.71.21.07-.07.14-.14.21-.21,14.18-14.26,14.18-37.3,0-51.56L333.52,32.08c-42.83-42.78-112.22-42.78-155.05,0L10.63,199.93c-14.18,14.26-14.18,37.3,0,51.56Z"/>
  </g>
</svg>